<?xml version="1.0" standalone="no"?>
<!DOCTYPE svg PUBLIC "-//W3C//DTD SVG 20010904//EN"
 "http://www.w3.org/TR/2001/REC-SVG-20010904/DTD/svg10.dtd">
<svg version="1.0" xmlns="http://www.w3.org/2000/svg"
 width="512.000000pt" height="512.000000pt" viewBox="0 0 512.000000 512.000000"
 preserveAspectRatio="xMidYMid meet">

<g transform="translate(0.000000,512.000000) scale(0.100000,-0.100000)"
fill="#000000" stroke="none">
<path d="M2415 5114 c-552 -43 -1013 -217 -1435 -542 -109 -85 -347 -323 -432
-432 -292 -379 -469 -809 -529 -1285 -16 -129 -16 -461 0 -590 60 -476 237
-906 529 -1285 85 -109 323 -347 432 -432 378 -292 811 -470 1285 -529 116
-14 413 -19 535 -7 497 45 1009 257 1390 576 735 615 1061 1541 874 2484 -74
377 -245 748 -492 1068 -85 109 -323 347 -432 432 -376 290 -818 472 -1277
527 -94 12 -373 21 -448 15z m681 -1017 c204 -68 375 -243 437 -444 l22 -72
55 -12 c347 -71 584 -418 540 -793 -44 -380 -347 -732 -757 -879 -129 -47
-223 -57 -515 -57 l-267 0 -10 -37 c-6 -21 -50 -199 -99 -395 -49 -197 -97
-369 -106 -383 -36 -54 -62 -60 -302 -63 -245 -4 -290 3 -335 47 -48 48 -47
78 10 324 29 122 54 229 57 237 2 8 -6 3 -19 -11 -43 -51 -58 -54 -284 -57
-256 -4 -308 4 -352 54 -29 33 -36 57 -31 114 5 61 551 2366 567 2393 10 16
34 38 53 49 33 18 63 18 645 16 l610 -3 81 -28z"/>
</g>
</svg>
